<svg xmlns="http://www.w3.org/2000/svg" viewBox="0 0 64 64">
  <!-- Background -->
  <rect width="64" height="64" rx="12" ry="12" fill="#4285F4" />
  
  <!-- Calendar Icon -->
  <rect x="12" y="12" width="40" height="40" rx="4" ry="4" fill="white" />
  <rect x="12" y="12" width="40" height="8" rx="4" ry="4" fill="#EA4335" />
  
  <!-- Calendar Grid (Simplified) -->
  <line x1="12" y1="28" x2="52" y2="28" stroke="#E0E0E0" stroke-width="1.5" />
  <line x1="12" y1="36" x2="52" y2="36" stroke="#E0E0E0" stroke-width="1.5" />
  <line x1="12" y1="44" x2="52" y2="44" stroke="#E0E0E0" stroke-width="1.5" />
  
  <line x1="20" y1="20" x2="20" y2="52" stroke="#E0E0E0" stroke-width="1.5" />
  <line x1="28" y1="20" x2="28" y2="52" stroke="#E0E0E0" stroke-width="1.5" />
  <line x1="36" y1="20" x2="36" y2="52" stroke="#E0E0E0" stroke-width="1.5" />
  <line x1="44" y1="20" x2="44" y2="52" stroke="#E0E0E0" stroke-width="1.5" />
  
  <!-- Highlighted Days (Events) -->
  <rect x="30" y="38" width="5" height="5" rx="1" ry="1" fill="#34A853" />
  <rect x="22" y="46" width="5" height="5" rx="1" ry="1" fill="#FBBC05" />
  <rect x="46" y="30" width="5" height="5" rx="1" ry="1" fill="#EA4335" />
</svg>